<?xml version="1.0" encoding="utf-8"?>
<svg id="master-artboard" viewBox="0 0 550 385" version="1.1" xmlns="http://www.w3.org/2000/svg" x="0px" y="0px" style="enable-background:new 0 0 550 385;" width="550px" height="385px">

<path d="M 0 0 H 550 V 385 H 0 V 0 Z" id="back_color" class="st0" style="fill: rgb(255, 255, 255);" transform="matrix(1, 0, 0, 1, 0, 0)"/><path d="M 0.1 0 H 549.699976 V 10.5 H 0.1 V 0 Z" class="st1" style="fill: rgb(23, 162, 184);" transform="matrix(1, 0, 0, 1, 0, 0)"/><path d="M 0.1 10 H 549.699976 V 16.6 H 0.1 V 10 Z" class="st2" style="fill: rgb(255, 243, 201);" transform="matrix(1, 0, 0, 1, 0, 0)"/><path d="M 0.1 16.200001 H 549.699976 V 20.400001 H 0.1 V 16.200001 Z" class="st3" style="fill: rgb(228, 213, 179);" transform="matrix(1, 0, 0, 1, 0, 0)"/><path d="M 0.1 19.9 H 549.699976 V 24.099999 H 0.1 V 19.9 Z" class="st4" style="fill: rgb(211, 239, 228);" transform="matrix(1, 0, 0, 1, 0, 0)"/><path d="M 0.1 23.1 H 549.699976 V 30.5 H 0.1 V 23.1 Z" class="st5" style="fill: rgb(255, 180, 161);" transform="matrix(1, 0, 0, 1, 0, 0)"/><path d="M 0.1 29.700001 H 549.699976 V 61.900002 H 0.1 V 29.700001 Z" class="st1" style="fill: rgb(23, 162, 184);" transform="matrix(1, 0, 0, 1, 0, 0)"/><path d="M 0.1 60.400002 H 549.699976 V 72.700002 H 0.1 V 60.400002 Z" class="st2" style="fill: rgb(255, 243, 201);" transform="matrix(1, 0, 0, 1, 0, 0)"/><path d="M 0.1 71.900002 H 549.699976 V 79.700002 H 0.1 V 71.900002 Z" class="st3" style="fill: rgb(228, 213, 179);" transform="matrix(1, 0, 0, 1, 0, 0)"/><path d="M 0.1 78.699997 H 549.699976 V 86.499997 H 0.1 V 78.699997 Z" class="st4" style="fill: rgb(23, 162, 184);" transform="matrix(1, 0, 0, 1, 0, 0)"/><path d="M 0.1 84.699997 H 549.699976 V 88.799997 H 0.1 V 84.699997 Z" class="st5" style="fill: rgb(255, 180, 161);" transform="matrix(1, 0, 0, 1, 0, 0)"/><path d="M 549.5999755859375 100.80000305175781 L 549.5999755859375 96.0999984741211 L 0 97.30000305175781 L 0 101.9000015258789 Z" class="st1" style="fill: rgb(23, 162, 184);" transform="matrix(2.463424682617188, 0, 0, 2.463424682617188, -401.54278564453125, -149.72924959527)"/><path d="M 549.9000244140625 123.9000015258789 L 549.7999877929688 99.19999694824219 L 0.10000000149011612 100.4000015258789 L 0.20000000298023224 125 Z" class="st2" style="fill: rgb(255, 243, 201);" transform="matrix(1, 0, 0, 1, 0, 0)"/><path d="M 549.9000244140625 138.10000610351562 L 549.9000244140625 122.30000305175781 L 0.20000000298023224 123.5 L 0.30000001192092896 139.1999969482422 Z" class="st3" style="fill: rgb(228, 213, 179);" transform="matrix(1, 0, 0, 1, 0, 0)"/><path d="M 550 151.8000030517578 L 549.9000244140625 136 L 0.30000001192092896 137.1999969482422 L 0.4000000059604645 152.89999389648438 Z" class="st4" style="fill: rgb(23, 162, 184);" transform="matrix(1, 0, 0, 1, 0, 0)"/><path d="M 550 156.3000030517578 L 550 148 L 0.30000001192092896 149.10000610351562 L 0.4000000059604645 157.39999389648438 Z" class="st5" style="fill: rgb(255, 180, 161);" transform="matrix(1, 0, 0, 1, 0, 0)"/><path d="M 0.1 152.600006 H 549.699976 V 163.100006 H 0.1 V 152.600006 Z" class="st1" style="fill: rgb(23, 162, 184);" transform="matrix(1, 0, 0, 1, -2.651546537890681e-9, 1.2125533819198537)"/><path d="M 0.1 162.699997 H 549.699976 V 169.299997 H 0.1 V 162.699997 Z" class="st2" style="fill: rgb(255, 243, 201);" transform="matrix(1, 0, 0, 1, 0, 0)"/><path d="M 0.1 168.899994 H 549.699976 V 173.099994 H 0.1 V 168.899994 Z" class="st3" style="fill: rgb(228, 213, 179);" transform="matrix(1, 0, 0, 1, 0, 0)"/><path d="M 0.1 172.5 H 549.699976 V 176.7 H 0.1 V 172.5 Z" class="st4" style="fill: rgb(23, 162, 184);" transform="matrix(1, 0, 0, 1, 0, 0)"/><path d="M 0.1 175.699997 H 549.699976 V 183.099997 H 0.1 V 175.699997 Z" class="st5" style="fill: rgb(255, 180, 161);" transform="matrix(1, 0, 0, 1, 0, 0)"/><path d="M 0.1 182.399994 H 549.699976 V 214.599995 H 0.1 V 182.399994 Z" class="st1" style="fill: rgb(23, 162, 184);" transform="matrix(1, 0, 0, 1, 0, 0)"/><path d="M 0.1 213 H 549.699976 V 225.3 H 0.1 V 213 Z" class="st2" style="fill: rgb(255, 243, 201);" transform="matrix(1, 0, 0, 1, 0, 0)"/><path d="M 0.1 224.5 H 549.699976 V 232.3 H 0.1 V 224.5 Z" class="st3" style="fill: rgb(228, 213, 179);" transform="matrix(1, 0, 0, 1, 0, 0)"/><path d="M 0.1 231.399994 H 549.699976 V 239.199994 H 0.1 V 231.399994 Z" class="st4" style="fill: rgb(23, 162, 184);" transform="matrix(1, 0, 0, 1, 0, 0)"/><path d="M 0.1 237.300003 H 549.699976 V 241.400003 H 0.1 V 237.300003 Z" class="st5" style="fill: rgb(255, 180, 161);" transform="matrix(1, 0, 0, 1, 0, 0)"/><path d="M 549.5999755859375 253.39999389648438 L 549.5999755859375 248.8000030517578 L 0 249.89999389648438 L 0 254.5 Z" class="st1" style="fill: rgb(182, 228, 210);" transform="matrix(2.914558766446708, 0, 0, 2.914558766446708, -526.1207256484767, -487.25520606068716)"/><path d="M 549.9000244140625 276.5 L 549.7999877929688 251.89999389648438 L 0.10000000149011612 253 L 0.20000000298023224 277.70001220703125 Z" class="st2" style="fill: rgb(255, 243, 201);" transform="matrix(1, 0, 0, 1, 0, 0)"/><path d="M 549.9000244140625 290.70001220703125 L 549.9000244140625 275 L 0.20000000298023224 276.1000061035156 L 0.30000001192092896 291.79998779296875 Z" class="st3" style="fill: rgb(228, 213, 179);" transform="matrix(1, 0, 0, 1, 0, 0)"/><path d="M 550 304.3999938964844 L 549.9000244140625 288.70001220703125 L 0.30000001192092896 289.79998779296875 L 0.4000000059604645 305.5 Z" class="st4" style="fill: rgb(23, 162, 184);" transform="matrix(1, 0, 0, 1, 0, 0)"/><path d="M 550 308.8999938964844 L 550 300.6000061035156 L 0.30000001192092896 301.79998779296875 L 0.4000000059604645 310.1000061035156 Z" class="st5" style="fill: rgb(255, 180, 161);" transform="matrix(1, 0, 0, 1, 0, 0)"/><path d="M 0.1 305.299988 H 549.699976 V 315.799988 H 0.1 V 305.299988 Z" class="st1" style="fill: rgb(182, 228, 210);" transform="matrix(1, 0, 0, 1, 0, 0)"/><path d="M 0.1 315.299988 H 549.699976 V 321.899988 H 0.1 V 315.299988 Z" class="st2" style="fill: rgb(255, 243, 201);" transform="matrix(1, 0, 0, 1, 0, 0)"/><path d="M 0.1 321.5 H 549.699976 V 325.7 H 0.1 V 321.5 Z" class="st3" style="fill: rgb(228, 213, 179);" transform="matrix(1, 0, 0, 1, 0, 0)"/><path d="M 0.1 325.200012 H 549.699976 V 329.400012 H 0.1 V 325.200012 Z" class="st4" style="fill: rgb(211, 239, 228);" transform="matrix(1, 0, 0, 1, 0, 0)"/><path d="M 0.1 328.399994 H 549.699976 V 335.799994 H 0.1 V 328.399994 Z" class="st5" style="fill: rgb(255, 180, 161);" transform="matrix(1, 0, 0, 1, 0, 0)"/><path d="M 0.1 335 H 549.699976 V 367.200001 H 0.1 V 335 Z" class="st1" style="fill: rgb(23, 162, 184);" transform="matrix(1, 0, 0, 1, 0, 0)"/><path d="M 0.1 365.700012 H 549.699976 V 378.000012 H 0.1 V 365.700012 Z" class="st2" style="fill: rgb(255, 243, 201);" transform="matrix(1, 0, 0, 1, 0, 0)"/><path d="M 0.1 377.200012 H 549.699976 V 385.000012 H 0.1 V 377.200012 Z" class="st3" style="fill: rgb(228, 213, 179);" transform="matrix(1, 0, 0, 1, 0, 0)"/>
<g id="drop_shadow" class="st6" transform="matrix(1, 0, 0, 1, 0, 0)" style="opacity: 0.15;">
		<path d="M 423.899994 195.5 A 152 152 0 0 1 271.899994 347.5 A 152 152 0 0 1 119.899994 195.5 A 152 152 0 0 1 271.899994 43.5 A 152 152 0 0 1 423.899994 195.5 Z"/>
		<path d="M271.9,304.7c-14.7,0-29-2.9-42.5-8.6c-13-5.5-24.7-13.4-34.7-23.4c-10-10-17.9-21.7-23.4-34.7&#10;&#9;&#9;&#9;c-5.7-13.5-8.6-27.8-8.6-42.5c0-14.7,2.9-29,8.6-42.5c5.5-13,13.4-24.7,23.4-34.7c10-10,21.7-17.9,34.7-23.4&#10;&#9;&#9;&#9;c13.5-5.7,27.8-8.6,42.5-8.6c14.7,0,29,2.9,42.5,8.6c13,5.5,24.7,13.4,34.7,23.4c10,10,17.9,21.7,23.4,34.7&#10;&#9;&#9;&#9;c5.7,13.5,8.6,27.8,8.6,42.5c0,14.7-2.9,29-8.6,42.5c-5.5,13-13.4,24.7-23.4,34.7c-10,10-21.7,17.9-34.7,23.4&#10;&#9;&#9;&#9;C300.9,301.8,286.6,304.7,271.9,304.7L271.9,304.7z M271.9,91.9c-57.1,0-103.6,46.5-103.6,103.6s46.5,103.6,103.6,103.6&#10;&#9;&#9;&#9;c57.1,0,103.6-46.5,103.6-103.6S329,91.9,271.9,91.9L271.9,91.9z"/>
		<path d="M73,58.5v273.9h15.5V206.9C88.5,206.9,131.7,100.4,73,58.5z"/>
		<path d="M470.2,74.6v43.7c0,2.8-2.3,5.1-5.1,5.1c-2.8,0-5.1-2.3-5.1-5.1V73.4h-9.4v44.8c0,2.8-2.3,5.1-5.1,5.1&#10;&#9;&#9;&#9;c-2.8,0-5.1-2.3-5.1-5.1V74.6c-7.5,2.7-12.8,9.9-12.8,18.4v34.4c0,10.6,8.4,19.2,18.9,19.5v185.6h19.6V146.8&#10;&#9;&#9;&#9;c9.5-1.3,16.9-9.5,16.9-19.4V93C483,84.6,477.7,77.4,470.2,74.6z"/>
	</g><g transform="matrix(1, 0, 0, 1, 0, 0)">
			<g id="paper_plate">
				<path d="M 420.899994 192.5 A 152 152 0 0 1 268.899994 344.5 A 152 152 0 0 1 116.899994 192.5 A 152 152 0 0 1 268.899994 40.5 A 152 152 0 0 1 420.899994 192.5 Z" id="color" class="st0" style="fill: rgb(255, 255, 255);"/>
				<path id="border" class="st7" d="M268.9,301.7c-14.7,0-29-2.9-42.5-8.6c-13-5.5-24.7-13.4-34.7-23.4c-10-10-17.9-21.7-23.4-34.7&#10;&#9;&#9;&#9;&#9;&#9;c-5.7-13.5-8.6-27.8-8.6-42.5c0-14.7,2.9-29,8.6-42.5c5.5-13,13.4-24.7,23.4-34.7c10-10,21.7-17.9,34.7-23.4&#10;&#9;&#9;&#9;&#9;&#9;c13.5-5.7,27.8-8.6,42.5-8.6c14.7,0,29,2.9,42.5,8.6c13,5.5,24.7,13.4,34.7,23.4c10,10,17.9,21.7,23.4,34.7&#10;&#9;&#9;&#9;&#9;&#9;c5.7,13.5,8.6,27.8,8.6,42.5c0,14.7-2.9,29-8.6,42.5c-5.5,13-13.4,24.7-23.4,34.7c-10,10-21.7,17.9-34.7,23.4&#10;&#9;&#9;&#9;&#9;&#9;C297.9,298.8,283.6,301.7,268.9,301.7L268.9,301.7z M268.9,88.9c-57.1,0-103.6,46.5-103.6,103.6c0,57.1,46.5,103.6,103.6,103.6&#10;&#9;&#9;&#9;&#9;&#9;c57.1,0,103.6-46.5,103.6-103.6C372.5,135.4,326,88.9,268.9,88.9L268.9,88.9z" style="fill: rgb(243, 244, 244);"/>
			</g>
		</g><path id="knife" class="st0" d="M70,55.5v273.9h15.5V203.9C85.5,203.9,128.7,97.4,70,55.5z" style="fill: rgb(255, 255, 255);" transform="matrix(1, 0, 0, 1, 0, 0)"/><path id="fork" class="st0" d="M467.2,71.6v43.7c0,2.8-2.3,5.1-5.1,5.1c-2.8,0-5.1-2.3-5.1-5.1V70.4h-9.4v44.8&#10;&#9;&#9;&#9;c0,2.8-2.3,5.1-5.1,5.1c-2.8,0-5.1-2.3-5.1-5.1V71.6c-7.5,2.7-12.8,9.9-12.8,18.4v34.4c0,10.6,8.4,19.2,18.9,19.5v185.6h19.6&#10;&#9;&#9;&#9;V143.8c9.5-1.3,16.9-9.5,16.9-19.4V90C480,81.6,474.7,74.4,467.2,71.6z" style="fill: rgb(255, 255, 255);" transform="matrix(1, 0, 0, 1, 0, 0)"/>

</svg>